<?xml version="1.0" encoding="UTF-8"?><svg id="Camada_2" xmlns="http://www.w3.org/2000/svg" viewBox="0 0 534.54 151.27"><defs><style>.cls-1{fill:#ed6c05;fill-rule:evenodd;}.cls-2{fill:#04488e;}</style></defs><g id="Camada_1-2"><g><path class="cls-1" d="m243.69,13.41c10.56,0,19.17,8.61,19.17,19.17s-8.61,19.17-19.17,19.17-19.17-8.61-19.17-19.17,8.61-19.17,19.17-19.17h0Z"/><path class="cls-2" d="m335.83,55.97v23.91h-21.71v67.04h-32.32V47.91c0-11.33,1.75-21.02,5.24-29.08,3.51-8.1,8.44-12.71,14.44-15.26,6.62-3.32,17.84-3.9,35.76-3.43v9.89c-7.82,1.96-13.6,4.09-17.4,9.56-3.81,5.49-5.72,12.92-5.72,22.36v14.02h21.71Z"/><path class="cls-2" d="m418.04,62.9c-7.99-7.37-18.19-11.06-30.63-11.06-14.54,0-26.91,5.03-37.07,15.09-10.16,10.06-15.23,22.39-15.23,37s4.65,25.36,13.92,34.07c9.3,8.72,21.5,13.06,36.66,13.06,6.13,0,12.16-.69,18.16-2.1,5.99-1.41,12.09-3.62,18.29-6.58l3.51-27.94c-6.72,4.24-13.13,7.44-19.22,9.58-6.1,2.17-11.64,3.24-16.61,3.24-7.06,0-12.92-1.9-17.57-5.72-4.65-3.79-7.2-8.75-7.68-14.88l62.08-1.72h0c1.39-.17,2.49-1.26,2.67-2.65l.26-2.07c.28-4,.41-6.89.41-8.68,0-11.71-4-21.26-11.95-28.63Zm-13.26,28.84l-39.48,1.21c1.07-5.99,3.51-10.65,7.37-13.99,3.82-3.34,8.61-5,14.33-5,5.13,0,9.37,1.52,12.71,4.58,3.38,3.06,5.06,6.99,5.06,11.78v1.41Z"/><path class="cls-2" d="m145.46,146.93h-31.59V55.97h29.18v15.23c4.82-5.96,9.99-10.44,15.43-13.37,5.44-2.93,11.37-4.38,17.78-4.38,9.61,0,16.92,2.76,21.88,8.27,4.99,5.51,7.48,13.61,7.48,24.22v60.98h-31.39v-52.09c0-4.79-.97-8.37-2.93-10.82-1.96-2.41-4.86-3.62-8.68-3.62-5.51,0-9.75,1.86-12.71,5.55-2.96,3.72-4.45,9.1-4.45,16.16v44.82h0Z"/><path class="cls-2" d="m60.36,55.97h31.39v90.96l-29.18.08v-13.48c-4.89,6.03-10.06,10.51-15.44,13.4-5.37,2.89-11.27,4.34-17.67,4.34-9.61,0-16.92-2.76-21.95-8.27-5-5.51-7.51-13.61-7.51-24.22v-62.81h31.59v53.92c0,4.79.97,8.41,2.93,10.85,1.96,2.45,4.86,3.69,8.68,3.69,5.51,0,9.75-1.86,12.71-5.62,2.96-3.72,4.44-9.09,4.44-16.09v-46.75h0Z"/><path class="cls-2" d="m434.82,55.97h31.16l18.71,36.62,18.88-36.62h30.98l-49.86,95.05-49.86-95.05Z"/><path class="cls-2" d="m243.69,60.88c-5.84,0-11.28-1.79-15.8-4.84-.07-.03-.13-.05-.2-.07v90.96h32.01V55.9s0,0-.01,0c-4.56,3.13-10.06,4.97-15.99,4.97Z"/></g></g></svg>